<?xml version="1.0" encoding="UTF-8" standalone="no"?>
<svg
   xmlns:dc="http://purl.org/dc/elements/1.1/"
   xmlns:cc="http://creativecommons.org/ns#"
   xmlns:rdf="http://www.w3.org/1999/02/22-rdf-syntax-ns#"
   xmlns:svg="http://www.w3.org/2000/svg"
   xmlns="http://www.w3.org/2000/svg"
   xmlns:sodipodi="http://sodipodi.sourceforge.net/DTD/sodipodi-0.dtd"
   xmlns:inkscape="http://www.inkscape.org/namespaces/inkscape"
   version="1.1"
   width="841.88977"
   height="595.27557"
   id="svg35"
   viewBox="0 0 841.88977 595.27557"
   sodipodi:docname="electrobauaz logo.cdr">

  <g
     id="Layer1000">
    <path
       d="m 269.6536,305.9042 c -5.6545,-0.7679 -5.0615,-5.146 -7.9628,-9.8039 -7.1107,30.5257 -35.9056,59.2064 -61.4163,70.7493 -40.8469,18.4785 -68.7019,10.567 -110.8462,3.7301 30.8043,24.4971 86.3186,26.6004 126.8263,10.139 33.8859,-13.7679 38.645,-23.4556 49.6936,-29.5957 0.6814,-0.379 1.9655,-0.7101 3.7054,-1.0054 v -0.2339 H 760.254 c 8.3143,0 15.118,-6.8031 15.118,-15.1183 v -13.5533 c 0,-8.3151 -6.8037,-15.1183 -15.118,-15.1183 H 269.6536 Z"
       style="fill:#184d93;fill-rule:evenodd"
       id="path2" />
    <path
       d="m 66.5175,245.1548 3.9962,54.9569 c 9.7816,-14.8574 13.1596,-26.385 24.2716,-40.8724 8.36,-10.9017 20.7061,-20.8378 35.5533,-28.7569 37.2436,-19.8673 71.9455,-12.3892 113.3449,-5.9247 l -8.5829,-5.8462 c -3.3552,-1.8296 -6.8244,-3.3804 -10.177,-4.7438 -25.1559,-10.2225 -52.8713,-12.6755 -79.611,-7.2095 -37.6617,7.6986 -54.5388,23.1566 -78.7951,38.3966 z"
       style="fill:#184d93;fill-rule:evenodd"
       id="path4" />
    <path
       d="m 273.3457,285.3717 v -57.5858 h 31.32 v 11.1804 h -17.9192 v 10.5676 h 16.5407 v 11.563 h -16.5407 v 12.5587 h 17.9192 v 11.7161 z"
       style="fill:#184d93;fill-rule:evenodd"
       id="path6" />
    <path
       d="m 342.6477,285.3717 h -29.6351 v -57.5858 h 13.4776 v 45.9462 h 16.1575 z"
       style="fill:#184d93;fill-rule:evenodd"
       id="path8" />
    <path
       d="m 348.6081,285.3717 v -57.5858 h 31.32 v 11.1804 h -17.9192 v 10.5676 h 16.5407 v 11.563 h -16.5407 v 12.5587 h 17.9192 v 11.7161 z"
       style="fill:#184d93;fill-rule:evenodd"
       id="path10" />
    <path
       d="m 411.8607,263.088 h 13.2477 c 0.0255,0.3444 0.051,0.7274 0.0638,1.1231 0.0127,0.3954 0.0127,0.9955 0.0127,1.7867 0,7.0322 -1.5443,12.2522 -4.6201,15.6472 -3.0756,3.4075 -7.7979,5.1052 -14.141,5.1052 -3.7397,0 -6.9431,-0.6256 -9.6105,-1.8635 -2.6674,-1.2506 -4.8243,-3.1396 -6.4707,-5.654 -1.1486,-1.7994 -1.9655,-4.2882 -2.4633,-7.4789 -0.4978,-3.1907 -0.7529,-8.2449 -0.7529,-15.175 0,-6.9301 0.2551,-11.9971 0.7529,-15.1877 0.4978,-3.178 1.3147,-5.6795 2.4633,-7.4662 1.6209,-2.5016 3.7522,-4.3776 6.3941,-5.6285 2.6419,-1.2634 5.7943,-1.8887 9.4573,-1.8887 6.3048,0 11.027,1.7484 14.1794,5.2455 3.1524,3.4968 4.735,8.7423 4.735,15.711 v 0.5616 l -13.0946,-0.0383 c -0.0511,-3.9056 -0.4978,-6.6495 -1.3527,-8.2321 -0.8425,-1.5826 -2.2592,-2.374 -4.2503,-2.374 -2.1696,0 -3.6629,0.97 -4.4541,2.8973 -0.8042,1.9273 -1.1996,7.0322 -1.1996,15.3025 v 1.0976 c 0,8.8957 0.3954,14.3581 1.1996,16.3619 0.7912,2.0038 2.2717,3.0121 4.4413,3.0121 2.0294,0 3.4334,-0.7274 4.2503,-2.1824 0.8039,-1.4678 1.2124,-4.1735 1.2124,-8.1428 z"
       style="fill:#184d93;fill-rule:evenodd"
       id="path12" />
    <path
       d="m 440.9725,285.3717 v -46.4054 h -10.7972 v -11.1804 h 35.6083 v 11.1804 h -11.3335 v 46.4054 z"
       style="fill:#184d93;fill-rule:evenodd"
       id="path14" />
    <path
       d="m 484.6085,251.7545 c 0.2299,0 0.5232,0.0128 0.8807,0.0383 0.3574,0.0255 0.6253,0.0383 0.8042,0.0383 2.7822,0 4.7605,-0.5616 5.9218,-1.6847 1.1614,-1.1231 1.7357,-3.0121 1.7357,-5.6795 0,-2.4633 -0.5743,-4.2117 -1.7357,-5.2455 -1.1613,-1.0338 -3.1396,-1.5571 -5.9218,-1.5571 -0.1789,0 -0.4468,0.0128 -0.8042,0.0383 -0.3575,0.0255 -0.6508,0.0383 -0.8807,0.0383 z m -13.3243,33.6172 v -57.5858 h 15.1495 c 4.9646,0 8.5637,0.2299 10.7972,0.6894 2.2464,0.4592 4.0586,1.2506 5.4626,2.3737 1.6336,1.353 2.8588,2.9993 3.6757,4.9776 0.8039,1.9653 1.2124,4.3138 1.2124,7.0195 0,3.3182 -0.5743,6.1007 -1.7357,8.3469 -1.1486,2.2334 -2.9483,4.0841 -5.3858,5.5261 4.1604,1.8508 6.3558,6.2283 6.5854,13.1329 v 0.1789 c 0.0256,0.7274 0.0511,1.7739 0.0766,3.1524 0.102,6.4834 1.1741,10.5421 3.2162,12.1884 H 494.589 c -0.3572,-1.1996 -0.6126,-2.4505 -0.7784,-3.765 -0.1531,-1.3019 -0.2427,-2.7056 -0.2427,-4.1989 0,-0.9318 0.0255,-2.0421 0.0769,-3.3568 0.051,-1.3144 0.0765,-2.1569 0.0765,-2.5651 0,-3.5098 -0.4595,-5.9221 -1.3785,-7.2238 -0.919,-1.2892 -2.5781,-1.94 -4.9646,-1.94 h -2.7697 v 23.0496 z"
       style="fill:#184d93;fill-rule:evenodd"
       id="path16" />
    <path
       d="m 539.8206,261.7733 v -10.389 c 0,-6.3813 -0.4085,-10.3379 -1.2124,-11.8437 -0.817,-1.506 -2.272,-2.2592 -4.3906,-2.2592 -2.0676,0 -3.5096,0.7787 -4.301,2.323 -0.8039,1.5443 -1.1996,5.4623 -1.1996,11.7799 v 10.389 c 0,6.241 0.3957,10.1463 1.1996,11.7289 0.7914,1.5826 2.2589,2.374 4.3775,2.374 2.0931,0 3.5354,-0.7787 4.3268,-2.323 0.804,-1.544 1.1997,-5.4623 1.1997,-11.7799 z m -24.8108,-5.1945 c 0,-6.9301 0.2551,-11.9843 0.7528,-15.175 0.4978,-3.1907 1.3148,-5.6922 2.4634,-7.4789 1.6463,-2.5399 3.8032,-4.4289 6.4706,-5.6668 2.6674,-1.2378 5.8708,-1.8504 9.6106,-1.8504 3.765,0 6.9684,0.6126 9.5975,1.8504 2.6292,1.2379 4.7605,3.1269 6.4069,5.6668 1.1996,1.8122 2.0421,4.3265 2.5398,7.5172 0.4978,3.1907 0.7529,8.2321 0.7529,15.1367 0,6.8791 -0.2551,11.9205 -0.7529,15.124 -0.4977,3.2034 -1.3402,5.7177 -2.5398,7.5299 -1.6209,2.5144 -3.7522,4.4034 -6.4069,5.654 -2.6546,1.2379 -5.8581,1.8635 -9.5975,1.8635 -3.7398,0 -6.9432,-0.6256 -9.6106,-1.8635 -2.6674,-1.2506 -4.8243,-3.1396 -6.4706,-5.654 -1.1486,-1.7867 -1.9656,-4.2882 -2.4634,-7.4789 -0.4977,-3.1907 -0.7528,-8.2449 -0.7528,-15.175 z"
       style="fill:#184d93;fill-rule:evenodd"
       id="path18" />
    <path
       d="m 575.2885,250.2995 h 0.8549 c 2.6419,0 4.582,-0.5488 5.8326,-1.6591 1.2637,-1.1104 1.889,-2.8333 1.889,-5.1562 0,-2.0166 -0.6253,-3.5737 -1.8635,-4.6585 -1.2506,-1.0848 -3.0246,-1.6208 -5.3348,-1.6208 -0.3699,0 -0.6508,0 -0.8549,0.0127 -0.2044,0.0128 -0.3575,0.0383 -0.485,0.0638 z m 0,24.8876 h 1.1614 c 2.8077,0 4.9263,-0.6639 6.3558,-1.9783 1.4168,-1.3147 2.1314,-3.2799 2.1314,-5.8963 0,-2.4378 -0.7019,-4.2245 -2.0931,-5.3606 -1.404,-1.1359 -3.6119,-1.6974 -6.624,-1.6974 h -0.9315 z m -13.4776,10.1846 v -57.5858 h 14.4859 c 4.3775,0 7.5299,0.1789 9.4317,0.5233 1.9015,0.3447 3.5606,0.9317 4.9518,1.7614 2.0676,1.2379 3.6375,2.8843 4.6968,4.9391 1.0593,2.0421 1.5826,4.4541 1.5826,7.2493 0,2.4888 -0.4978,4.7095 -1.4806,6.6623 -0.9828,1.9397 -2.5526,3.8415 -4.7222,5.6792 2.5653,1.302 4.4926,3.0631 5.7943,5.2965 1.2892,2.2337 1.94,4.9011 1.94,8.0153 0,2.5653 -0.434,5.0028 -1.3019,7.2876 -0.8805,2.2972 -2.0931,4.25 -3.663,5.8708 -1.5057,1.5698 -3.3437,2.6802 -5.5389,3.331 -2.1951,0.6508 -5.5774,0.97 -10.1593,0.97 z"
       style="fill:#877e7e;fill-rule:evenodd"
       id="path20" />
    <path
       d="m 618.7204,263.9302 h 7.7468 l -3.8543,-25.1173 z m -16.63,21.4415 12.5586,-57.5858 h 16.0044 l 12.4055,57.5858 h -13.4521 l -1.6846,-11.027 h -10.5803 l -1.6846,11.027 z"
       style="fill:#877e7e;fill-rule:evenodd"
       id="path22" />
    <path
       d="m 646.9897,227.7859 h 13.6307 v 36.0932 c 0,5.4497 0.3447,8.832 1.0338,10.1336 0.6764,1.2892 1.8887,1.9401 3.6374,1.9401 1.7739,0 2.9863,-0.6764 3.663,-2.0166 0.6763,-1.3527 1.0082,-4.6967 1.0082,-10.0571 v -36.0932 h 13.3243 v 36.7568 c 0,4.1607 -0.1786,7.2749 -0.536,9.3297 -0.3702,2.0548 -0.9573,3.8415 -1.7867,5.3603 -1.3658,2.5909 -3.3441,4.4927 -5.9349,5.705 -2.5909,1.2124 -5.9729,1.8125 -10.1336,1.8125 -3.8415,0 -6.9684,-0.5615 -9.3807,-1.6977 -2.4247,-1.1358 -4.3393,-2.948 -5.756,-5.4368 -1.0211,-1.7739 -1.7357,-4.0459 -2.1569,-6.8154 -0.4085,-2.7566 -0.6126,-7.4279 -0.6126,-14.0136 z"
       style="fill:#877e7e;fill-rule:evenodd"
       id="path24" />
    <path
       d="m 703.7969,263.9302 h 7.7468 l -3.8543,-25.1173 z m -16.63,21.4415 12.5586,-57.5858 h 16.0044 l 12.4055,57.5858 h -13.4521 l -1.6846,-11.027 h -10.5803 l -1.6846,11.027 z"
       style="fill:#877e7e;fill-rule:evenodd"
       id="path26" />
    <path
       d="m 731.1858,285.3717 v -10.7334 l 17.638,-35.8254 h -16.1833 v -11.027 h 31.0904 v 10.0188 l -17.6765,35.7743 h 18.5187 v 11.7927 z"
       style="fill:#877e7e;fill-rule:evenodd"
       id="path28" />
    <path
       d="M 124.8812,355.2282 V 237.9084 h 83.4565 v 28.0653 h -49.9193 v 15.6645 h 42.2005 v 26.9232 h -42.2005 v 18.112 h 51.9761 v 28.5548 z"
       style="fill:#184d93;fill-rule:evenodd"
       id="path30" />
    <path
       d="m 137.3592,294.4605 25.078,0.4068 -24.6681,60.3607 45.3283,-55.5871 c 5.7728,-7.4543 9.7341,-10.3718 14.2986,-17.9726 l -29.5781,0.002 20.4007,-43.73 -25.8351,0.0608 z"
       style="fill:#d7a029;fill-rule:evenodd"
       id="path32" />
  </g>
</svg>
